<svg width="25" height="12" viewBox="0 0 25 12" fill="none" xmlns="http://www.w3.org/2000/svg">
<path opacity="0.35" d="M0.5 3.00001C0.5 1.80339 1.47005 0.833344 2.66667 0.833344H19.3333C20.53 0.833344 21.5 1.80339 21.5 3.00001V9.00001C21.5 10.1966 20.53 11.1667 19.3333 11.1667H2.66667C1.47005 11.1667 0.5 10.1966 0.5 9.00001V3.00001Z" stroke="#252A31"/>
<path opacity="0.4" d="M23 4V8C23.8047 7.66122 24.328 6.87313 24.328 6C24.328 5.12687 23.8047 4.33878 23 4Z" fill="#252A31"/>
<path d="M2 3.66668C2 2.9303 2.59695 2.33334 3.33333 2.33334H18.6667C19.403 2.33334 20 2.9303 20 3.66668V8.33334C20 9.06972 19.403 9.66668 18.6667 9.66668H3.33333C2.59695 9.66668 2 9.06972 2 8.33334V3.66668Z" fill="#252A31"/>
</svg>
