<svg width="24" height="24" viewBox="0 0 24 24" fill="none" xmlns="http://www.w3.org/2000/svg">
<path fill-rule="evenodd" clip-rule="evenodd" d="M6 4C4.34315 4 3 5.34315 3 7V19C3 20.6569 4.34315 22 6 22H18C19.6569 22 21 20.6569 21 19V7C21 5.34315 19.6569 4 18 4H6ZM6 6C5.44772 6 5 6.44772 5 7V19C5 19.5523 5.44765 20 5.99993 20H14.9922C17.0123 20 19 18.0114 19 16V6.99996C19 6.44768 18.5523 6 18 6H6Z" fill="#006CFF"/>
<path d="M5.5 9.5H18.5" stroke="#006CFF" stroke-width="2" stroke-linecap="square"/>
<path opacity="0.3" d="M7.5 2V4.5" stroke="#006CFF" stroke-width="2" stroke-linecap="round"/>
<path opacity="0.3" d="M16.5 2V4.5" stroke="#006CFF" stroke-width="2" stroke-linecap="round"/>
</svg>
